<mxfile modified="2024-08-05T11:31:50.581Z" host="Electron" agent="Mozilla/5.0 (Windows NT 10.0; Win64; x64) AppleWebKit/537.36 (KHTML, like Gecko) draw.io/24.6.4 Chrome/124.0.6367.207 Electron/30.0.6 Safari/537.36" etag="tqdRl0Uskz9Wm0QfbzCQ" version="24.6.4" type="device">
  <diagram id="Ht1M8jgEwFfnCIfOTk4-" name="Page-1">
    <mxGraphModel dx="273" dy="715" grid="1" gridSize="10" guides="1" tooltips="1" connect="1" arrows="1" fold="1" page="1" pageScale="1" pageWidth="827" pageHeight="1169" math="0" shadow="0">
      <root>
        <mxCell id="0" />
        <mxCell id="1" parent="0" />
        <mxCell id="KW59PeZABZt6SA6DWuRM-1" value="AWS Cloud" style="points=[[0,0],[0.25,0],[0.5,0],[0.75,0],[1,0],[1,0.25],[1,0.5],[1,0.75],[1,1],[0.75,1],[0.5,1],[0.25,1],[0,1],[0,0.75],[0,0.5],[0,0.25]];outlineConnect=0;gradientColor=none;html=1;whiteSpace=wrap;fontSize=12;fontStyle=0;shape=mxgraph.aws4.group;grIcon=mxgraph.aws4.group_aws_cloud_alt;strokeColor=#232F3E;fillColor=none;verticalAlign=top;align=left;spacingLeft=30;fontColor=#232F3E;dashed=0;container=1;pointerEvents=0;collapsible=0;recursiveResize=0;" parent="1" vertex="1">
          <mxGeometry x="1131" y="120" width="919" height="970.5" as="geometry" />
        </mxCell>
        <mxCell id="KW59PeZABZt6SA6DWuRM-3" value="VPC" style="points=[[0,0],[0.25,0],[0.5,0],[0.75,0],[1,0],[1,0.25],[1,0.5],[1,0.75],[1,1],[0.75,1],[0.5,1],[0.25,1],[0,1],[0,0.75],[0,0.5],[0,0.25]];outlineConnect=0;gradientColor=none;html=1;whiteSpace=wrap;fontSize=12;fontStyle=0;container=1;pointerEvents=0;collapsible=0;recursiveResize=0;shape=mxgraph.aws4.group;grIcon=mxgraph.aws4.group_vpc2;strokeColor=#8C4FFF;fillColor=none;verticalAlign=top;align=left;spacingLeft=30;fontColor=#AAB7B8;dashed=0;" parent="KW59PeZABZt6SA6DWuRM-1" vertex="1">
          <mxGeometry x="30" y="80" width="840" height="880" as="geometry" />
        </mxCell>
        <mxCell id="YAXFw-S7Jnl4mdZOeOcL-41" value="Availability Zone" style="fillColor=none;strokeColor=#147EBA;dashed=1;verticalAlign=top;fontStyle=0;fontColor=#147EBA;whiteSpace=wrap;html=1;" parent="KW59PeZABZt6SA6DWuRM-3" vertex="1">
          <mxGeometry x="486" y="200" width="281" height="607.75" as="geometry" />
        </mxCell>
        <mxCell id="KW59PeZABZt6SA6DWuRM-12" value="Availability Zone" style="fillColor=none;strokeColor=#147EBA;dashed=1;verticalAlign=top;fontStyle=0;fontColor=#147EBA;whiteSpace=wrap;html=1;" parent="KW59PeZABZt6SA6DWuRM-3" vertex="1">
          <mxGeometry x="39" y="200" width="281" height="607.75" as="geometry" />
        </mxCell>
        <mxCell id="KW59PeZABZt6SA6DWuRM-4" value="Public subnet" style="points=[[0,0],[0.25,0],[0.5,0],[0.75,0],[1,0],[1,0.25],[1,0.5],[1,0.75],[1,1],[0.75,1],[0.5,1],[0.25,1],[0,1],[0,0.75],[0,0.5],[0,0.25]];outlineConnect=0;gradientColor=none;html=1;whiteSpace=wrap;fontSize=12;fontStyle=0;container=1;pointerEvents=0;collapsible=0;recursiveResize=0;shape=mxgraph.aws4.group;grIcon=mxgraph.aws4.group_security_group;grStroke=0;strokeColor=#7AA116;fillColor=#F2F6E8;verticalAlign=top;align=left;spacingLeft=30;fontColor=#248814;dashed=0;" parent="KW59PeZABZt6SA6DWuRM-3" vertex="1">
          <mxGeometry x="70" y="299.5" width="240" height="470.5" as="geometry" />
        </mxCell>
        <mxCell id="YAXFw-S7Jnl4mdZOeOcL-15" value="mount target" style="ellipse;whiteSpace=wrap;html=1;aspect=fixed;fillColor=#d5e8d4;strokeColor=#82b366;" parent="KW59PeZABZt6SA6DWuRM-4" vertex="1">
          <mxGeometry x="189" y="420.5" width="40" height="40" as="geometry" />
        </mxCell>
        <mxCell id="Jj9UYMmZ1Mb0EDD-zCcL-1" value="" style="sketch=0;points=[[0,0,0],[0.25,0,0],[0.5,0,0],[0.75,0,0],[1,0,0],[0,1,0],[0.25,1,0],[0.5,1,0],[0.75,1,0],[1,1,0],[0,0.25,0],[0,0.5,0],[0,0.75,0],[1,0.25,0],[1,0.5,0],[1,0.75,0]];outlineConnect=0;fontColor=#232F3E;fillColor=#ED7100;strokeColor=#ffffff;dashed=0;verticalLabelPosition=bottom;verticalAlign=top;align=center;html=1;fontSize=12;fontStyle=0;aspect=fixed;shape=mxgraph.aws4.resourceIcon;resIcon=mxgraph.aws4.ec2;" vertex="1" parent="KW59PeZABZt6SA6DWuRM-4">
          <mxGeometry x="81" y="69.5" width="78" height="78" as="geometry" />
        </mxCell>
        <mxCell id="Jj9UYMmZ1Mb0EDD-zCcL-20" style="edgeStyle=orthogonalEdgeStyle;rounded=0;orthogonalLoop=1;jettySize=auto;html=1;exitX=1;exitY=0.5;exitDx=0;exitDy=0;entryX=0.5;entryY=0;entryDx=0;entryDy=0;fillColor=#d5e8d4;strokeColor=#82b366;" edge="1" parent="KW59PeZABZt6SA6DWuRM-4" source="Jj9UYMmZ1Mb0EDD-zCcL-3" target="YAXFw-S7Jnl4mdZOeOcL-15">
          <mxGeometry relative="1" as="geometry" />
        </mxCell>
        <mxCell id="Jj9UYMmZ1Mb0EDD-zCcL-3" value="&lt;font style=&quot;font-size: 16px;&quot;&gt;Task&lt;/font&gt;" style="rounded=1;whiteSpace=wrap;html=1;" vertex="1" parent="KW59PeZABZt6SA6DWuRM-4">
          <mxGeometry x="81" y="250.5" width="80" height="30" as="geometry" />
        </mxCell>
        <mxCell id="KW59PeZABZt6SA6DWuRM-8" value="10.0.1.0/24" style="text;html=1;align=left;verticalAlign=middle;whiteSpace=wrap;rounded=0;fillColor=#d5e8d4;strokeColor=#82b366;" parent="KW59PeZABZt6SA6DWuRM-3" vertex="1">
          <mxGeometry x="70" y="279.5" width="100" height="20" as="geometry" />
        </mxCell>
        <mxCell id="KW59PeZABZt6SA6DWuRM-13" value="us-east-1a" style="text;html=1;align=center;verticalAlign=middle;whiteSpace=wrap;rounded=0;fillColor=#dae8fc;strokeColor=#6c8ebf;" parent="KW59PeZABZt6SA6DWuRM-3" vertex="1">
          <mxGeometry x="39" y="180" width="100" height="20" as="geometry" />
        </mxCell>
        <mxCell id="iPUKWWcroHYGa8-xgQve-2" value="Public subnet" style="points=[[0,0],[0.25,0],[0.5,0],[0.75,0],[1,0],[1,0.25],[1,0.5],[1,0.75],[1,1],[0.75,1],[0.5,1],[0.25,1],[0,1],[0,0.75],[0,0.5],[0,0.25]];outlineConnect=0;gradientColor=none;html=1;whiteSpace=wrap;fontSize=12;fontStyle=0;container=1;pointerEvents=0;collapsible=0;recursiveResize=0;shape=mxgraph.aws4.group;grIcon=mxgraph.aws4.group_security_group;grStroke=0;strokeColor=#7AA116;fillColor=#F2F6E8;verticalAlign=top;align=left;spacingLeft=30;fontColor=#248814;dashed=0;" parent="KW59PeZABZt6SA6DWuRM-3" vertex="1">
          <mxGeometry x="499" y="299.5" width="247" height="470.5" as="geometry" />
        </mxCell>
        <mxCell id="YAXFw-S7Jnl4mdZOeOcL-16" value="mount target" style="ellipse;whiteSpace=wrap;html=1;aspect=fixed;fillColor=#d5e8d4;strokeColor=#82b366;" parent="iPUKWWcroHYGa8-xgQve-2" vertex="1">
          <mxGeometry x="10" y="420.5" width="40" height="40" as="geometry" />
        </mxCell>
        <mxCell id="Jj9UYMmZ1Mb0EDD-zCcL-19" style="edgeStyle=orthogonalEdgeStyle;rounded=0;orthogonalLoop=1;jettySize=auto;html=1;exitX=0;exitY=0.5;exitDx=0;exitDy=0;fillColor=#d5e8d4;strokeColor=#82b366;" edge="1" parent="iPUKWWcroHYGa8-xgQve-2" source="Jj9UYMmZ1Mb0EDD-zCcL-11" target="YAXFw-S7Jnl4mdZOeOcL-16">
          <mxGeometry relative="1" as="geometry" />
        </mxCell>
        <mxCell id="Jj9UYMmZ1Mb0EDD-zCcL-11" value="&lt;font style=&quot;font-size: 16px;&quot;&gt;Task&lt;/font&gt;" style="rounded=1;whiteSpace=wrap;html=1;" vertex="1" parent="iPUKWWcroHYGa8-xgQve-2">
          <mxGeometry x="83.5" y="250.5" width="80" height="30" as="geometry" />
        </mxCell>
        <mxCell id="iPUKWWcroHYGa8-xgQve-6" value="10.0.2.0/24" style="text;html=1;align=left;verticalAlign=middle;whiteSpace=wrap;rounded=0;fillColor=#d5e8d4;strokeColor=#82b366;" parent="KW59PeZABZt6SA6DWuRM-3" vertex="1">
          <mxGeometry x="499" y="279.5" width="100" height="20" as="geometry" />
        </mxCell>
        <mxCell id="YAXFw-S7Jnl4mdZOeOcL-2" value="us-east-1b" style="text;html=1;align=center;verticalAlign=middle;whiteSpace=wrap;rounded=0;fillColor=#dae8fc;strokeColor=#6c8ebf;" parent="KW59PeZABZt6SA6DWuRM-3" vertex="1">
          <mxGeometry x="486" y="180" width="100" height="20" as="geometry" />
        </mxCell>
        <mxCell id="Jj9UYMmZ1Mb0EDD-zCcL-15" style="edgeStyle=orthogonalEdgeStyle;rounded=0;orthogonalLoop=1;jettySize=auto;html=1;exitX=0.5;exitY=1;exitDx=0;exitDy=0;exitPerimeter=0;" edge="1" parent="KW59PeZABZt6SA6DWuRM-3" source="YAXFw-S7Jnl4mdZOeOcL-10" target="Jj9UYMmZ1Mb0EDD-zCcL-1">
          <mxGeometry relative="1" as="geometry">
            <Array as="points">
              <mxPoint x="393" y="340" />
              <mxPoint x="190" y="340" />
            </Array>
          </mxGeometry>
        </mxCell>
        <mxCell id="Jj9UYMmZ1Mb0EDD-zCcL-16" style="edgeStyle=orthogonalEdgeStyle;rounded=0;orthogonalLoop=1;jettySize=auto;html=1;exitX=0.5;exitY=1;exitDx=0;exitDy=0;exitPerimeter=0;" edge="1" parent="KW59PeZABZt6SA6DWuRM-3" source="YAXFw-S7Jnl4mdZOeOcL-10" target="Jj9UYMmZ1Mb0EDD-zCcL-2">
          <mxGeometry relative="1" as="geometry">
            <Array as="points">
              <mxPoint x="393" y="340" />
              <mxPoint x="623" y="340" />
            </Array>
          </mxGeometry>
        </mxCell>
        <mxCell id="YAXFw-S7Jnl4mdZOeOcL-10" value="" style="outlineConnect=0;dashed=0;verticalLabelPosition=bottom;verticalAlign=top;align=center;html=1;shape=mxgraph.aws3.application_load_balancer;fillColor=#F58534;gradientColor=none;" parent="KW59PeZABZt6SA6DWuRM-3" vertex="1">
          <mxGeometry x="358.5" y="150" width="69" height="72" as="geometry" />
        </mxCell>
        <mxCell id="YAXFw-S7Jnl4mdZOeOcL-17" value="" style="sketch=0;points=[[0,0,0],[0.25,0,0],[0.5,0,0],[0.75,0,0],[1,0,0],[0,1,0],[0.25,1,0],[0.5,1,0],[0.75,1,0],[1,1,0],[0,0.25,0],[0,0.5,0],[0,0.75,0],[1,0.25,0],[1,0.5,0],[1,0.75,0]];outlineConnect=0;fontColor=#232F3E;fillColor=#7AA116;strokeColor=#ffffff;dashed=0;verticalLabelPosition=bottom;verticalAlign=top;align=center;html=1;fontSize=12;fontStyle=0;aspect=fixed;shape=mxgraph.aws4.resourceIcon;resIcon=mxgraph.aws4.efs_standard;" parent="KW59PeZABZt6SA6DWuRM-3" vertex="1">
          <mxGeometry x="358.5" y="760" width="78" height="78" as="geometry" />
        </mxCell>
        <mxCell id="Jj9UYMmZ1Mb0EDD-zCcL-8" value="&lt;font style=&quot;font-size: 14px;&quot;&gt;ASG&lt;/font&gt;" style="text;html=1;align=left;verticalAlign=middle;whiteSpace=wrap;rounded=0;" vertex="1" parent="KW59PeZABZt6SA6DWuRM-3">
          <mxGeometry x="20" y="330" width="36" height="19.5" as="geometry" />
        </mxCell>
        <mxCell id="Jj9UYMmZ1Mb0EDD-zCcL-10" value="&lt;font style=&quot;font-size: 14px;&quot;&gt;ECS Capacity Provider&lt;/font&gt;" style="text;html=1;align=left;verticalAlign=middle;whiteSpace=wrap;rounded=0;" vertex="1" parent="KW59PeZABZt6SA6DWuRM-3">
          <mxGeometry x="102" y="500.5" width="198" height="19.5" as="geometry" />
        </mxCell>
        <mxCell id="Jj9UYMmZ1Mb0EDD-zCcL-2" value="" style="sketch=0;points=[[0,0,0],[0.25,0,0],[0.5,0,0],[0.75,0,0],[1,0,0],[0,1,0],[0.25,1,0],[0.5,1,0],[0.75,1,0],[1,1,0],[0,0.25,0],[0,0.5,0],[0,0.75,0],[1,0.25,0],[1,0.5,0],[1,0.75,0]];outlineConnect=0;fontColor=#232F3E;fillColor=#ED7100;strokeColor=#ffffff;dashed=0;verticalLabelPosition=bottom;verticalAlign=top;align=center;html=1;fontSize=12;fontStyle=0;aspect=fixed;shape=mxgraph.aws4.resourceIcon;resIcon=mxgraph.aws4.ec2;" vertex="1" parent="KW59PeZABZt6SA6DWuRM-3">
          <mxGeometry x="583.5" y="370" width="78" height="78" as="geometry" />
        </mxCell>
        <mxCell id="Jj9UYMmZ1Mb0EDD-zCcL-13" value="&lt;font style=&quot;font-size: 14px;&quot;&gt;ECS Service&lt;/font&gt;" style="text;html=1;align=left;verticalAlign=middle;whiteSpace=wrap;rounded=0;" vertex="1" parent="KW59PeZABZt6SA6DWuRM-3">
          <mxGeometry x="109.5" y="590.5" width="198" height="19.5" as="geometry" />
        </mxCell>
        <mxCell id="Jj9UYMmZ1Mb0EDD-zCcL-21" style="edgeStyle=orthogonalEdgeStyle;rounded=0;orthogonalLoop=1;jettySize=auto;html=1;exitX=0.5;exitY=1;exitDx=0;exitDy=0;entryX=0.5;entryY=0;entryDx=0;entryDy=0;entryPerimeter=0;fillColor=#d5e8d4;strokeColor=#82b366;" edge="1" parent="KW59PeZABZt6SA6DWuRM-3" source="YAXFw-S7Jnl4mdZOeOcL-15" target="YAXFw-S7Jnl4mdZOeOcL-17">
          <mxGeometry relative="1" as="geometry" />
        </mxCell>
        <mxCell id="Jj9UYMmZ1Mb0EDD-zCcL-22" style="edgeStyle=orthogonalEdgeStyle;rounded=0;orthogonalLoop=1;jettySize=auto;html=1;exitX=0.5;exitY=1;exitDx=0;exitDy=0;entryX=0.5;entryY=0;entryDx=0;entryDy=0;entryPerimeter=0;fillColor=#d5e8d4;strokeColor=#82b366;" edge="1" parent="KW59PeZABZt6SA6DWuRM-3" source="YAXFw-S7Jnl4mdZOeOcL-16" target="YAXFw-S7Jnl4mdZOeOcL-17">
          <mxGeometry relative="1" as="geometry" />
        </mxCell>
        <mxCell id="Jj9UYMmZ1Mb0EDD-zCcL-12" value="" style="rounded=0;whiteSpace=wrap;html=1;fillColor=none;dashed=1;" vertex="1" parent="KW59PeZABZt6SA6DWuRM-3">
          <mxGeometry x="109.5" y="539.75" width="591" height="70.25" as="geometry" />
        </mxCell>
        <mxCell id="Jj9UYMmZ1Mb0EDD-zCcL-9" value="" style="rounded=0;whiteSpace=wrap;html=1;fillColor=none;dashed=1;" vertex="1" parent="KW59PeZABZt6SA6DWuRM-3">
          <mxGeometry x="102" y="360.25" width="591" height="159.75" as="geometry" />
        </mxCell>
        <mxCell id="Jj9UYMmZ1Mb0EDD-zCcL-23" value="" style="rounded=0;whiteSpace=wrap;html=1;gradientColor=none;fillColor=none;dashed=1;strokeWidth=3;" vertex="1" parent="KW59PeZABZt6SA6DWuRM-3">
          <mxGeometry x="89" y="355" width="631" height="295" as="geometry" />
        </mxCell>
        <mxCell id="Jj9UYMmZ1Mb0EDD-zCcL-24" value="&lt;font style=&quot;font-size: 14px;&quot;&gt;ECS Cluster&lt;/font&gt;" style="text;html=1;align=left;verticalAlign=middle;whiteSpace=wrap;rounded=0;" vertex="1" parent="KW59PeZABZt6SA6DWuRM-3">
          <mxGeometry x="89" y="630.5" width="81" height="19.5" as="geometry" />
        </mxCell>
        <mxCell id="Jj9UYMmZ1Mb0EDD-zCcL-6" value="" style="rounded=0;whiteSpace=wrap;html=1;fillColor=none;dashed=1;" vertex="1" parent="KW59PeZABZt6SA6DWuRM-3">
          <mxGeometry x="20" y="330" width="770" height="150" as="geometry" />
        </mxCell>
        <mxCell id="KW59PeZABZt6SA6DWuRM-7" value="10.0.0.0/16" style="text;html=1;align=left;verticalAlign=middle;whiteSpace=wrap;rounded=0;fillColor=#e1d5e7;strokeColor=#9673a6;" parent="KW59PeZABZt6SA6DWuRM-1" vertex="1">
          <mxGeometry x="40" y="60" width="100" height="20" as="geometry" />
        </mxCell>
        <mxCell id="KW59PeZABZt6SA6DWuRM-6" value="" style="sketch=0;outlineConnect=0;fontColor=#232F3E;gradientColor=none;fillColor=#8C4FFF;strokeColor=none;dashed=0;verticalLabelPosition=bottom;verticalAlign=top;align=center;html=1;fontSize=12;fontStyle=0;aspect=fixed;pointerEvents=1;shape=mxgraph.aws4.internet_gateway;" parent="KW59PeZABZt6SA6DWuRM-1" vertex="1">
          <mxGeometry x="399" y="56.25" width="47.5" height="47.5" as="geometry" />
        </mxCell>
        <mxCell id="YAXFw-S7Jnl4mdZOeOcL-30" style="edgeStyle=orthogonalEdgeStyle;rounded=0;orthogonalLoop=1;jettySize=auto;html=1;exitX=0.5;exitY=0;exitDx=0;exitDy=0;exitPerimeter=0;" parent="KW59PeZABZt6SA6DWuRM-1" source="YAXFw-S7Jnl4mdZOeOcL-10" target="KW59PeZABZt6SA6DWuRM-6" edge="1">
          <mxGeometry relative="1" as="geometry" />
        </mxCell>
        <mxCell id="YAXFw-S7Jnl4mdZOeOcL-12" style="edgeStyle=orthogonalEdgeStyle;rounded=0;orthogonalLoop=1;jettySize=auto;html=1;exitX=0.5;exitY=1;exitDx=0;exitDy=0;exitPerimeter=0;" parent="1" source="KW59PeZABZt6SA6DWuRM-2" target="KW59PeZABZt6SA6DWuRM-6" edge="1">
          <mxGeometry relative="1" as="geometry" />
        </mxCell>
        <mxCell id="KW59PeZABZt6SA6DWuRM-2" value="" style="sketch=0;pointerEvents=1;shadow=0;dashed=0;html=1;strokeColor=none;labelPosition=center;verticalLabelPosition=bottom;verticalAlign=top;align=center;fillColor=#505050;shape=mxgraph.mscae.intune.user_group" parent="1" vertex="1">
          <mxGeometry x="1528.5" y="30" width="50" height="37" as="geometry" />
        </mxCell>
        <mxCell id="YAXFw-S7Jnl4mdZOeOcL-11" style="edgeStyle=orthogonalEdgeStyle;rounded=0;orthogonalLoop=1;jettySize=auto;html=1;exitX=0.5;exitY=1;exitDx=0;exitDy=0;exitPerimeter=0;entryX=0.96;entryY=0.65;entryDx=0;entryDy=0;entryPerimeter=0;" parent="1" source="KW59PeZABZt6SA6DWuRM-2" target="KW59PeZABZt6SA6DWuRM-2" edge="1">
          <mxGeometry relative="1" as="geometry" />
        </mxCell>
      </root>
    </mxGraphModel>
  </diagram>
</mxfile>
